<svg viewBox="0 0 640 100" xmlns="http://www.w3.org/2000/svg">
  <style>
    @import url('https://fonts.googleapis.com/css2?family=Space+Grotesk:wght@700&amp;display=swap');
  </style>
  <path d="M 10 20 C 40 0, 60 70, 90 50 C 120 30, 140 90, 170 60 C 190 42, 210 30, 230 25" fill="none" stroke="#FFFFFF" stroke-width="6" stroke-linecap="round" stroke-linejoin="round" opacity="1"/>
  <path d="M 10 50 C 40 80, 65 10, 95 30 C 125 50, 150 0, 180 30 C 200 50, 215 55, 230 50" fill="none" stroke="#FFFFFF" stroke-width="5.5" stroke-linecap="round" stroke-linejoin="round" opacity="0.7"/>
  <path d="M 10 80 C 45 50, 70 90, 100 70 C 130 50, 155 20, 185 50 C 205 70, 220 80, 230 78" fill="none" stroke="#FFFFFF" stroke-width="4.5" stroke-linecap="round" stroke-linejoin="round" opacity="0.4"/>
  <circle cx="77" cy="40" r="4" fill="#FFFFFF" opacity="0.3"/>
  <circle cx="165" cy="45" r="4" fill="#FFFFFF" opacity="0.3"/>
  <text x="255" y="66" font-family="'Space Grotesk', sans-serif" font-size="42" font-weight="700" fill="rgba(255,255,255,0.85)" letter-spacing="0.5">Monsoon Health</text>
</svg>
